<?xml version="1.0" encoding="utf-8"?>
<!-- Generator: Adobe Illustrator 16.0.3, SVG Export Plug-In . SVG Version: 6.00 Build 0)  -->
<!DOCTYPE svg PUBLIC "-//W3C//DTD SVG 1.1//EN" "http://www.w3.org/Graphics/SVG/1.1/DTD/svg11.dtd">
<svg version="1.1" id="Layer_2" xmlns="http://www.w3.org/2000/svg" xmlns:xlink="http://www.w3.org/1999/xlink" x="0px" y="0px"
	 width="100px" height="100px" viewBox="7 521.5 100 100" style="enable-background:new 7 521.5 100 100;" xml:space="preserve">
<g id="layer4" transform="translate(0,-594.09448)" inkscape:label="Person 1" inkscape:groupmode="layer">
	<ellipse id="path5651" style="fill:#004F86;" cx="59.438" cy="1126.906" rx="10.134" ry="11.312"/>
	<path id="path5731" inkscape:connector-curvature="0" style="fill:#004F86;" d="M59.437,1140.651
		c-17.441,0.021-32.265,12.394-34.921,29.146c4.852-14.711,18.969-24.698,34.921-24.705c16.028,0.018,30.188,10.107,34.967,24.919
		C91.843,1153.156,76.967,1140.668,59.437,1140.651z"/>
	<path id="path5731-48" inkscape:connector-curvature="0" style="fill:#00A8D8;" d="M79.253,1176.126
		c-13.996,0.016-25.833,10.065-27.729,23.542c3.782-11.75,15.017-19.753,27.729-19.754c12.758,0.012,24.013,8.08,27.747,19.891
		C105.167,1186.267,93.303,1176.141,79.253,1176.126z"/>
	<path id="path5731-3" inkscape:connector-curvature="0" style="fill:#007475;" d="M33.263,1193.144
		c-13.264,0.015-24.479,9.546-26.263,22.319c3.578-11.131,14.22-18.716,26.263-18.717c12.085,0.012,22.746,7.66,26.277,18.848
		C57.817,1202.764,46.577,1193.16,33.263,1193.144z"/>
</g>
<g id="layer6" transform="translate(0,-594.09448)" inkscape:label="Person 3" inkscape:groupmode="layer">
	<ellipse id="path5651-5" style="fill:#00A8D8;" cx="79.253" cy="1165.966" rx="6.891" ry="7.692"/>
	<ellipse id="path5651-1" style="fill:#007475;" cx="33.262" cy="1181.17" rx="7.702" ry="8.597"/>
</g>
</svg>
